<?xml version="1.0" encoding="UTF-8"?>
<svg width="190px" height="110px" viewBox="0 0 190 110" version="1.1" xmlns="http://www.w3.org/2000/svg" xmlns:xlink="http://www.w3.org/1999/xlink">
    <title>icon-plug_right</title>
    <g id="Home" stroke="none" stroke-width="1" fill="none" fill-rule="evenodd">
        <g id="Cables_1440-Home-1" transform="translate(-1089.000000, -985.000000)" fill="#F3F4F4" fill-rule="nonzero">
            <path d="M1229,985 C1234.42924,985 1238.84793,989.326671 1238.99616,994.720095 L1239,995 L1239,1085 C1239,1090.42924 1234.67333,1094.84793 1229.2799,1094.99616 L1229,1095 L1099,1095 C1093.57076,1095 1089.15207,1090.67333 1089.00384,1085.2799 L1089,1085 L1089,995 C1089,989.57076 1093.32667,985.152068 1098.7201,985.003842 L1099,985 L1229,985 Z M1270,1000 C1274.97056,1000 1279,1004.02944 1279,1009 L1279,1071 C1279,1075.97056 1274.97056,1080 1270,1080 L1268,1080 C1263.02944,1080 1259,1075.97056 1259,1071 L1259,1009 C1259,1004.02944 1263.02944,1000 1268,1000 L1270,1000 Z M1214,1005 L1114,1005 C1111.31125,1005 1109.11818,1007.12231 1109.00462,1009.78311 L1109,1010 L1109,1070 C1109,1072.68875 1111.12231,1074.88182 1113.78311,1074.99538 L1114,1075 L1214,1075 C1216.68875,1075 1218.88182,1072.87769 1218.99538,1070.21689 L1219,1070 L1219,1010 C1219,1007.31125 1216.87769,1005.11818 1214.21689,1005.00462 L1214,1005 Z" id="icon-plug_right"></path>
        </g>
    </g>
</svg>